<?xml version="1.0" encoding="utf-8"?>
<!-- Generator: Adobe Illustrator 24.1.2, SVG Export Plug-In . SVG Version: 6.00 Build 0)  -->
<svg version="1.1" id="Capa_1" xmlns="http://www.w3.org/2000/svg" xmlns:xlink="http://www.w3.org/1999/xlink" x="0px" y="0px"
	 viewBox="0 0 16 16" style="enable-background:new 0 0 16 16;" xml:space="preserve">
<path d="M4.3,10.3c0,0-0.1,0.1-0.1,0.1l-3.8,3.9c-0.4,0.4-0.4,1,0,1.4s1,0.4,1.4,0l3.8-3.8c0,0,0.1-0.1,0.1-0.1h0
	c2.3,1.7,5.4,1.7,7.7,0c2.9-2.1,3.5-6.2,1.4-9.1S8.6-0.9,5.7,1.3S2.1,7.4,4.3,10.3L4.3,10.3z M9.5,1c3,0,5.5,2.5,5.5,5.5
	S12.5,12,9.5,12S4,9.5,4,6.5S6.5,1,9.5,1z"/>
</svg>
